<svg xmlns:dc="http://purl.org/dc/elements/1.1/" xmlns:cc="http://creativecommons.org/ns#" xmlns:rdf="http://www.w3.org/1999/02/22-rdf-syntax-ns#" xmlns:svg="http://www.w3.org/2000/svg" xmlns="http://www.w3.org/2000/svg" xmlns:sodipodi="http://sodipodi.sourceforge.net/DTD/sodipodi-0.dtd" xmlns:inkscape="http://www.inkscape.org/namespaces/inkscape" width="100" height="100" viewBox="0 0 80 80" version="1.1" id="svg2" inkscape:version="0.48.2 r9819" sodipodi:docname="blank.svg">
  <metadata id="metadata10">
    <rdf:RDF>
      <cc:Work rdf:about="">
        <dc:format>image/svg+xml</dc:format>
        <dc:type rdf:resource="http://purl.org/dc/dcmitype/StillImage"/>
        <dc:title/>
      </cc:Work>
    </rdf:RDF>
  </metadata>
  <defs id="defs8"/>
  <sodipodi:namedview pagecolor="#ffffff" bordercolor="#666666" borderopacity="1" objecttolerance="10" gridtolerance="10" guidetolerance="10" inkscape:pageopacity="0" inkscape:pageshadow="2" inkscape:window-width="1165" inkscape:window-height="480" id="namedview6" showgrid="false" inkscape:zoom="1.888" inkscape:cx="62.5" inkscape:cy="62.5" inkscape:window-x="0" inkscape:window-y="0" inkscape:window-maximized="0" inkscape:current-layer="svg2"/>
  <path style="fill:#000000;fill-opacity:1;stroke:none;stroke-width:0.31817377000000002" d="m 38.135167,0.74531208 2.565276,9.88327192 2.873507,-0.03977 0.845149,10.778136 2.008472,-0.318174 0.367888,9.604871 c -2.620078,-2.073177 -6.119783,-3.287785 -10.25116,-3.350768 -8.520315,0 -15.421484,6.770446 -15.421484,15.113256 0,8.34281 6.901169,15.10331 15.421484,15.10331 8.520315,0 15.431427,-6.7605 15.431427,-15.10331 0.100041,-3.99222 -1.121774,-7.44798 -3.370654,-10.042361 l 10.917338,-8.948639 -3.102195,-2.565276 5.737071,-7.735599 -2.853621,-2.177502 1.262752,-8.2725179 -4.086544,9.3662399 2.276931,1.740013 -5.985644,8.998351 1.779784,0.994293 -6.114901,8.411719 c -0.388419,-0.431148 -0.80743,-0.832941 -1.25281,-1.213037 l 2.943108,-13.273812 -4.026887,-0.08949 -0.258516,-9.6346989 -3.599341,0.04971 -4.10643,-7.27822502 z M 55.31655,33.089663 c -0.83313,-0.0019 -3.535296,0.603524 -4.096487,1.362182 2.685609,4.17399 2.065441,9.36415 1.521268,10.99688 l 10.459963,9.36624 -8.163146,6.08507 c -0.601436,-1.43634 -2.008496,-2.43602 -3.658998,-2.43602 l -29.659759,0 c -2.200668,0 -3.977173,1.78151 -3.977173,3.99706 l 0,16.36606 37.604161,0 0,-7.50691 0.735777,0.55681 c 1.20093,0.91511 2.769149,0.68506 3.69877,-0.35795 l 14.884566,-11.86191 c 3.871164,-4.46247 2.721014,-8.00972 -2.515561,-12.68718 L 56.698617,33.586809 C 56.302562,33.243808 55.816425,33.090716 55.31655,33.089663 z m -24.06189,6.443022 c 0,0 1.697234,2.72345 1.779784,3.45019 0.128727,1.13324 -0.797667,2.06813 -1.779784,2.06813 -0.982113,0 -1.837985,-0.92704 -1.779784,-2.06813 0.05503,-1.07904 1.779784,-3.45019 1.779784,-3.45019 z m 5.448726,7.98417 c 1.782959,0 3.231452,1.43855 3.231452,3.22151 0,1.78296 -1.448493,3.23145 -3.231452,3.23145 -1.78296,0 -3.231453,-1.44849 -3.231453,-3.23145 0,-1.78296 1.448493,-3.22151 3.231453,-3.22151 z M 7.5208867,60.651465 c -1.509859,0 -2.734306,1.12833 -2.734306,2.5255 l 0,15.65017 11.8221433,0 0,-15.65017 c 0,-1.39717 -1.214504,-2.5255 -2.724362,-2.5255 l -6.3634753,0 z" id="rect6394" inkscape:connector-curvature="0"/>
</svg>